<svg width="128" height="128" viewBox="0 0 128 128" fill="none" xmlns="http://www.w3.org/2000/svg">
<path fill-rule="evenodd" clip-rule="evenodd" d="M61.2121 1.27143C59.6852 2.23102 47.0883 9.5345 33.2179 17.5012L8 31.9859V64.1323V96.2787L35.6296 112.163C50.8251 120.899 63.8394 128.026 64.5492 128C65.2591 127.974 77.9161 120.952 92.6767 112.395L119.514 96.8381L119.758 64.3694L120 31.9016L94.771 17.3335C80.8942 9.32146 68.2917 2.03743 66.7647 1.14638C64.105 -0.405085 63.8718 -0.399528 61.2121 1.27143ZM82.8977 25.6966C96.9513 43.563 99.3907 47.1097 98.0164 47.6802C96.0786 48.4833 26.0218 65.9885 24.7429 65.9885C24.2607 65.9885 32.622 52.1614 43.3236 35.2611C54.0253 18.3617 63.0066 3.94921 63.2805 3.23415C63.944 1.50299 63.1778 0.625832 82.8977 25.6966ZM51.8144 18.5182C46.4099 27.0517 37.5804 41.039 32.1935 49.6022C24.5328 61.7787 22.1914 64.8788 21.4456 63.8294C19.5743 61.196 10.3238 32.3675 11.239 32.021C11.748 31.8275 23.2002 25.2539 36.6883 17.4113C50.1764 9.56877 61.3084 3.11837 61.4268 3.07761C61.5453 3.03686 57.2198 9.98465 51.8144 18.5182ZM95.453 19.676C107.16 26.4219 116.946 32.1396 117.201 32.3814C117.649 32.8065 111.934 38.1649 105.016 43.8048L101.623 46.5706L86.1145 26.8711C77.5848 16.0368 69.9491 6.36487 69.1477 5.37842C67.7707 3.68431 67.8688 3.69079 70.9291 5.49698C72.7106 6.54919 83.7463 12.9292 95.453 19.676ZM118.077 62.0519L118.027 89.6078L110.327 69.2303L102.628 48.8529L110.146 41.7068C114.28 37.7768 117.768 34.546 117.895 34.5284C118.021 34.5108 118.104 46.8957 118.077 62.0519ZM20.0306 67.7872C20.0306 69.1312 11.2492 89.8292 10.2164 90.9203C10.0156 91.1324 9.87399 79.2533 9.90176 64.5222L9.95266 37.7379L14.9916 51.978C17.7633 59.8104 20.0306 66.924 20.0306 67.7872ZM91.7365 73.5781C87.2889 86.4697 83.3901 97.4948 83.0736 98.0774C82.6988 98.7656 72.5292 93.8751 54.0586 84.1254C38.417 75.8678 25.3777 68.87 25.0816 68.5736C24.5383 68.0299 98.8678 49.3336 99.4888 49.8569C99.673 50.0125 96.1841 60.6866 91.7365 73.5781ZM117.838 95.2255C117.742 95.2811 111.833 96.049 104.707 96.9317C97.5815 97.8153 90.1845 98.7712 88.2689 99.0556L84.7865 99.5743L92.6804 76.5292C97.0216 63.8544 100.804 52.8589 101.085 52.0947C101.366 51.3306 105.29 60.6996 109.805 72.9149C114.319 85.1303 117.934 95.1699 117.838 95.2255ZM41.5829 97.4809C51.9856 112 60.408 123.99 60.2997 124.125C59.8916 124.636 10.8457 96.0564 10.8115 95.2876C10.7457 93.8047 21.3993 70.6132 22.0378 70.8494C22.3849 70.9782 31.1801 82.962 41.5829 97.4809ZM60.7494 89.6291C72.2016 95.634 81.6993 100.644 81.8557 100.764C82.0121 100.885 78.1003 106.634 73.1631 113.542L64.1865 126.1L47.5454 102.76C38.3929 89.9227 29.3987 77.3508 27.558 74.823L24.2117 70.2261L32.0695 74.4692C36.3912 76.8033 49.2973 83.6252 60.7494 89.6291ZM114.347 97.8125C114.136 97.995 103.967 103.881 91.7513 110.894C79.5356 117.907 69.1644 123.865 68.7035 124.137C67.4921 124.849 68.5184 123.238 76.6085 111.737L83.8463 101.447L96.5904 99.8531C103.6 98.9768 109.751 98.1173 110.26 97.9431C111.531 97.5087 114.823 97.4031 114.347 97.8125Z" fill="url(#paint0_linear_7794_43145)"/>
<defs>
<linearGradient id="paint0_linear_7794_43145" x1="8" y1="64" x2="120" y2="64" gradientUnits="userSpaceOnUse">
<stop stop-color="#620C9B"/>
<stop offset="1" stop-color="#28E0CA"/>
</linearGradient>
</defs>
</svg>
