<?xml version="1.0" standalone="no"?>
<!DOCTYPE svg PUBLIC "-//W3C//DTD SVG 20010904//EN"
 "http://www.w3.org/TR/2001/REC-SVG-20010904/DTD/svg10.dtd">
<svg version="1.0" xmlns="http://www.w3.org/2000/svg"
 width="70.000000pt" height="70.000000pt" viewBox="0 0 70.000000 70.000000"
 preserveAspectRatio="xMidYMid meet">
<metadata>
Created by potrace 1.14, written by Peter Selinger 2001-2017
</metadata>
<g transform="translate(0.000000,70.000000) scale(0.100000,-0.100000)"
fill="#000000" stroke="none">
<path d="M180 622 l-135 -78 -3 -165 -2 -164 97 -55 c54 -30 118 -65 143 -78
l45 -24 85 49 c47 26 94 53 105 60 11 7 35 20 53 30 l32 17 -2 165 -3 165
-134 78 c-73 43 -136 78 -140 78 -3 0 -67 -35 -141 -78z m111 41 c-48 -83
-168 -267 -177 -270 -14 -5 -59 136 -47 148 7 7 225 138 231 139 1 0 -2 -8 -7
-17z m55 -5 c41 -48 145 -191 141 -194 -5 -5 -357 -92 -357 -88 0 4 49 86 105
174 26 41 55 87 64 102 19 34 22 34 47 6z m101 -39 c143 -83 136 -78 121 -97
-11 -13 -11 -15 5 -9 16 6 17 -4 16 -121 l0 -127 -34 85 c-19 47 -34 90 -35
97 0 7 10 21 22 33 25 23 17 26 -15 6 -21 -14 -25 -11 -99 85 -42 54 -75 99
-73 99 2 0 44 -23 92 -51z m-367 -195 l20 -67 -24 -51 -24 -51 -1 118 c-1 64
1 117 4 117 2 0 13 -30 25 -66z m375 -96 c-21 -62 -39 -114 -40 -116 -2 -2
-66 29 -144 69 -77 40 -139 75 -137 77 7 6 351 90 355 87 2 -3 -13 -55 -34
-117z m94 4 c21 -56 36 -104 33 -106 -4 -2 -36 -7 -72 -11 -36 -4 -68 -9 -72
-12 -5 -2 -8 -1 -8 4 0 10 74 232 77 230 1 -2 20 -48 42 -105z m-338 -127 c88
-121 85 -117 52 -102 -53 23 -195 110 -199 121 -5 13 21 82 38 103 12 15 10
16 109 -122z m10 90 c46 -24 107 -57 135 -72 l52 -27 -39 -58 c-22 -32 -43
-58 -48 -58 -4 0 -30 33 -58 73 -28 39 -70 98 -93 130 -22 31 -39 57 -37 57 2
0 41 -20 88 -45z m287 -119 c-76 -46 -147 -86 -154 -86 -10 0 57 90 74 98 9 5
35 10 57 11 22 2 42 5 44 7 2 2 11 4 20 4 9 0 -10 -16 -41 -34z"/>
</g>
</svg>
